<svg id="Layer_1" data-name="Layer 1" xmlns="http://www.w3.org/2000/svg" viewBox="0 0 400 300"><line x1="203.85" y1="116.24" x2="247.13" y2="116.24" fill="none" stroke="#ffd200" stroke-miterlimit="10" stroke-width="5"/><line x1="203.85" y1="148.4" x2="247.13" y2="148.4" fill="none" stroke="#ffd200" stroke-miterlimit="10" stroke-width="5"/><line x1="203.85" y1="181.93" x2="247.13" y2="181.93" fill="none" stroke="#ffd200" stroke-miterlimit="10" stroke-width="5"/><line x1="203.85" y1="214.09" x2="247.13" y2="214.09" fill="none" stroke="#ffd200" stroke-miterlimit="10" stroke-width="5"/><line x1="203.85" y1="241.13" x2="247.13" y2="241.13" fill="none" stroke="#ffd200" stroke-miterlimit="10" stroke-width="5"/><path d="M150,57.48c-40.9,10.11-73.23,42-82.71,83.08-7.05,30.55-.86,62.05,46.59,73.5,102.59,24.77,213.4,16.6,226.68-32.93s-11.36-134.51-70-139.77C237.16,38.37,187,48.34,150,57.48Z" fill="#e6e6e6" opacity="0.3"/><ellipse cx="203.85" cy="261.38" rx="137.87" ry="13.24" fill="#e6e6e6" opacity="0.45"/><path d="M125.38,206.18v-3.45a4.73,4.73,0,0,1,4.73-4.72h4.42a4.73,4.73,0,0,1,4.73,4.72v3.71" fill="none" stroke="#24285b" stroke-miterlimit="10" stroke-width="2"/><rect x="116" y="204.82" width="33.71" height="21.96" fill="#ffd200"/><path d="M116,215.12s12.63,10.85,33.71,7.66v4H116Z" opacity="0.08"/><path d="M288.73,250.73s-8.23-2.21-10.05-9.85c0,0,12.72-2.62,13.14,10.52Z" fill="#168016" opacity="0.58"/><path d="M289.73,249.92s-5.78-9.06-.76-17.57c0,0,9.71,6.11,5.45,17.57Z" fill="#168016" opacity="0.73"/><path d="M291.21,249.92s3-9.6,12.16-11.46c0,0,1.74,6.22-5.89,11.46Z" fill="#168016"/><polygon points="285.25 249.72 286.96 261.12 297.46 261.12 298.95 249.72 285.25 249.72" fill="#24285b"/><path d="M288.73,250.73s-8.23-2.21-10.05-9.85c0,0,12.72-2.62,13.14,10.52Z" fill="#168016" opacity="0.58"/><path d="M289.73,249.92s-5.78-9.06-.76-17.57c0,0,9.71,6.11,5.45,17.57Z" fill="#168016" opacity="0.73"/><path d="M291.21,249.92s3-9.6,12.16-11.46c0,0,1.74,6.22-5.89,11.46Z" fill="#168016"/><polygon points="285.25 249.72 286.96 261.12 297.46 261.12 298.95 249.72 285.25 249.72" fill="#24285b"/><line x1="203.85" y1="32.02" x2="203.85" y2="261.38" fill="none" stroke="#ffd200" stroke-miterlimit="10" stroke-width="5"/><line x1="247.13" y1="32.02" x2="247.13" y2="261.38" fill="none" stroke="#ffd200" stroke-miterlimit="10" stroke-width="5"/><path d="M166.3,123.23s-12.36,6.07-12.11,17,.77,40.34-19.66,46.46l2.56,6.64S180.45,194.52,166.3,123.23Z" fill="#168016"/><path d="M166.3,123.23s-12.36,6.07-12.11,17,.77,40.34-19.66,46.46l2.56,6.64S180.45,194.52,166.3,123.23Z" fill="#fff" opacity="0.46"/><polygon points="169.72 112.03 172.2 119.48 166.3 123.23 164.18 110.31 169.72 112.03" fill="#f4a28c"/><path d="M162.15,103.11a4.65,4.65,0,0,1,7.68-1.29c2.51,2.68,5.54,6.94,2.11,9.26-5.24,3.55-10-3.08-10-3.08A8.45,8.45,0,0,1,162.15,103.11Z" fill="#f4a28c"/><path d="M166,107.68s-1.35-1.12-2,.47,1.77,2.37,2.48,1.56S166,107.68,166,107.68Z" fill="#f4a28c"/><path d="M164.57,112.68l-4-4.13a4.39,4.39,0,0,1-1.22-3.24,15.88,15.88,0,0,1,2.29-8c2.73-3.94,6.36-5.43,7.26-2s1.09-.64,3.29,1.17,1.75,2.88,0,3.84-5.37,2.34-5.69,5.22S168.92,110.75,164.57,112.68Z" fill="#24285b"/><path d="M172.2,119.48s29.61-12.17,37.59,10.7-4.28,56.56-4.28,56.56H172.2s-29.5-44.42-5.9-63.51Z" fill="#168016"/><path d="M135.27,188.66s-8.91,3.87-5.33,8,7.15-3.24,7.15-3.24Z" fill="#f4a28c"/><polygon points="172.2 186.75 177.94 255.95 184.82 255.95 189.8 202.22 205.51 186.75 172.2 186.75" fill="#24285b"/><path d="M179.47,256l.29,2.35a3.26,3.26,0,0,0,3.24,2.87h5a1.78,1.78,0,0,0,1.14-3.15,10.48,10.48,0,0,0-4.34-2.07Z" fill="#168016"/><path d="M188.46,131.33c-3.73-10.29,9.48-18.12,16.68-9.88a32.58,32.58,0,0,1,6.17,11.42c7.58,23,9.37,36.26,34.13,36.77V177s-33.19,5.08-48.76-26.82A194.44,194.44,0,0,1,188.46,131.33Z" fill="#168016"/><path d="M188.46,131.33c-3.73-10.29,9.48-18.12,16.68-9.88a32.58,32.58,0,0,1,6.17,11.42c7.58,23,9.37,36.26,34.13,36.77V177s-33.19,5.08-48.76-26.82A194.44,194.44,0,0,1,188.46,131.33Z" fill="#fff" opacity="0.46"/><path d="M245.44,171.43s6.28-1.42,7.65,2.67-7.65,2.94-7.65,2.94Z" fill="#f4a28c"/><path d="M205.51,186.74s19.4-2.69,25.53,8-9.53,39.83-9.53,39.83l-7-2.22s12.14-27.55-5.16-31a14.62,14.62,0,0,0-6,.16l-18.55,4.12,3-18.21Z" fill="#24285b"/><path d="M216.63,233l-.42,1.51a3.19,3.19,0,0,0,.76,3.05l.49.52a3.2,3.2,0,0,0,2.31,1h4.16a1.35,1.35,0,0,0,.94-2.31,11.51,11.51,0,0,0-3.36-2.21Z" fill="#168016"/><line x1="203.85" y1="51.94" x2="247.13" y2="51.94" fill="none" stroke="#ffd200" stroke-miterlimit="10" stroke-width="5"/><line x1="203.85" y1="84.09" x2="247.13" y2="84.09" fill="none" stroke="#ffd200" stroke-miterlimit="10" stroke-width="5"/><circle cx="108.78" cy="77.36" r="31.31" fill="#24285b"/><polygon points="127.29 93.36 145.74 98.32 131.9 83.94 127.29 93.36" fill="#24285b"/><path d="M110.46,61.19c.89,0,1.16.31,1.16,1.19v1.9c3.55.5,5.6,2.27,7.1,5.36.46.93.27,1.43-.77,1.89l-1.89.85c-.89.43-1.32.23-1.82-.69a4.83,4.83,0,0,0-4.94-3c-3.28,0-4.78,1-4.78,3.17,0,1.43,1.31,2.32,2.66,2.59a23.43,23.43,0,0,0,2.78.42,18.18,18.18,0,0,1,5.13,1,7.08,7.08,0,0,1,2.28,1.24,7.44,7.44,0,0,1,2,5.4c0,4.21-2.82,7.07-7.8,7.8v2c0,.88-.27,1.19-1.16,1.19h-2.12c-.89,0-1.2-.31-1.2-1.19v-2c-3.86-.5-6.45-2.47-7.72-6-.31-.85,0-1.42.89-1.77l1.89-.7c1-.34,1.39-.11,1.81.85.85,2.16,2.59,3.25,5.22,3.25,3.55,0,5.32-1.12,5.32-3.4a2.37,2.37,0,0,0-1.66-2.4,13.48,13.48,0,0,0-3.82-.73,16.88,16.88,0,0,1-5.17-1.12,7.32,7.32,0,0,1-2.24-1.27,7,7,0,0,1-2.08-5.25c0-4.17,2.62-6.95,7.56-7.6v-1.9c0-.88.31-1.19,1.2-1.19Z" fill="#fff"/></svg>